# xmcd
# 
# Track frame offsets:
#     150
#     8668
#     24771
#     34264
#     44142
#     67013
#     74330
#     86724
#     97410
#     105825
# 
# Disc length: 1511
# 
# Revision: 0
# Processed by: cddbd v1.5.2PL0 Copyright (c) Steve Scherf et al.
# Submitted via: fre:ac v1.0.31
# 
DISCID=8205e50a
DTITLE=Julie Ocean - Long Gone and Nearly There
DYEAR=2008
DGENRE=Indiepop
TTITLE0=Ten Lonely Words
TTITLE1=#1 Song
TTITLE2=My Revenge
TTITLE3=At the Appointed Hour
TTITLE4=Here Comes Danny
TTITLE5=Bright Idea
TTITLE6=Complications
TTITLE7=Ebb and Flow
TTITLE8=There's a Place (In the Back of My Mind)
TTITLE9=Looking at Me/Looking at You
EXTD=
EXTT0=
EXTT1=
EXTT2=
EXTT3=
EXTT4=
EXTT5=
EXTT6=
EXTT7=
EXTT8=
EXTT9=
PLAYORDER=
